<?xml version="1.0" standalone="no"?>
 <!DOCTYPE svg PUBLIC "-//W3C//DTD SVG 1.1//EN" "http://www.w3.org/Graphics/SVG/1.1/DTD/svg11.dtd"> 
 <svg viewBox = "0 0 300 300" version = "1.1"><path d = "M 3 2 L 3 4 L 2 12 L 2 16 L 2 19 L 3 23 L 2 27 L 3 30 L 3 32 L 4 37 L 5 41 L 4 44 L 5 47 L 5 49 L 5 51 L 5 53 L 4 56 L 6 57 L 6 59 L 7 60 L 6 62 L 6 63 L 7 75 L 7 77 L 7 80 L 6 82 L 6 84 L 5 88 L 6 89 L 6 91 L 6 94 L 5 96 L 5 98 L 5 105 L 6 107 L 5 110 L 7 113 L 6 115 L 6 117 L 6 119 L 5 121 L 6 123 L 6 126 L 7 129 L 7 131 L 6 133 L 6 137 L 6 139 L 7 141 L 6 144 L 5 147 L 6 147 L 8 148 L 6 152 L 5 155 L 5 157 L 5 164 L 5 168 L 4 168 L 5 170 L 4 172 L 4 173 L 4 175 L 4 177 L 4 180 L 6 184 L 4 187 L 4 188 L 6 190 L 5 194 L 4 197 L 5 200 L 4 202 L 5 204 L 4 206 L 4 210 L 4 213 L 3 216 L 4 219 L 5 222 L 4 224 L 5 227 L 5 229 L 7 233 L 5 234 L 5 234 L 4 236 L 5 236 L 5 238 L 5 240 L 4 241 L 4 243 L 5 245 L 5 247 L 6 251 L 7 253 L 7 257 L 6 258 L 6 260 L 6 261 L 8 262 L 7 264 L 7 266 L 8 268 L 9 269 L 7 270 L 8 272 L 10 273 L 8 275 L 7 277 L 8 279 L 11 279 L 10 281 L 9 282 L 8 285 L 10 289 L 12 290 L 12 292 L 11 293 L 10 295 L 9 297 L 12 298 L 15 297 L 17 297 L 21 298 L 23 296 L 162 298 L 298 1  " fill = "none" stroke = "black" stroke-width = "3"/> 
<path d = "M 187 9 L 189 10 L 190 10 L 194 10 L 197 11 L 199 10 L 201 11 L 204 10 L 206 11 L 210 10 L 213 11 L 213 9 L 215 9 L 218 10 L 220 10 L 222 10 L 224 11 L 226 12 L 228 11 L 231 11 L 234 11 L 237 12 L 240 12 L 242 12 L 244 12 L 246 13 L 248 13 L 250 15 L 252 19 L 253 23 L 254 26 L 254 28 L 254 30 L 254 33 L 256 34 L 255 36 L 256 37 L 256 39 L 258 40 L 257 42 L 258 45 L 258 48 L 258 50 L 260 51 L 259 53 L 259 55 L 260 58 L 261 61 L 261 63 L 263 66 L 264 71 L 265 77 L 264 80 L 266 83 L 267 87 L 268 92 L 269 96 L 269 98 L 270 101 L 271 105 L 270 107 L 272 109 L 270 113 L 270 116 L 267 117 L 264 117 L 262 117 L 260 117 L 257 118 L 253 118 L 248 119 L 245 119 L 243 119 L 240 120 L 238 120 L 232 121 L 229 122 L 227 122 L 224 123 L 220 123 L 217 124 L 214 125 L 212 124 L 207 126 L 202 127 L 197 128 L 194 129 L 191 130 L 187 131 L 183 132 L 181 132 L 179 132 L 177 132 L 175 133 L 170 134 L 165 135 L 163 135 L 161 136 L 159 136 L 152 137 L 150 138 L 143 139 L 138 141 L 135 141 L 133 142 L 129 143 L 125 144 L 123 143 L 121 144 L 119 144 L 117 144 L 111 145 L 107 146 L 105 147 L 98 148 L 96 148 L 93 147 L 92 145 L 90 141 L 91 139 L 90 135 L 91 131 L 90 127 L 89 123 L 88 122 L 88 116 L 87 115 L 87 111 L 87 108 L 86 106 L 86 104 L 86 102 L 85 101 L 84 98 L 85 94 L 84 89 L 84 86 L 84 83 L 85 80 L 86 79 L 84 79 L 84 77 L 84 74 L 84 71 L 86 72 L 86 72 L 85 68 L 85 66 L 85 62 L 85 61 L 84 59 L 83 56 L 84 50 L 84 37 L 85 35 L 84 30 L 83 27 L 82 25 L 82 23 L 82 21 L 82 18 L 82 14 L 84 13 L 86 12 L 89 11 L 91 12 L 93 13 L 94 13 L 95 12 L 97 13 L 102 14 L 107 15 L 108 13 L 110 13 L 111 15 L 113 14 L 115 15 L 115 14 L 120 13 L 122 13 L 124 13 L 126 13 L 128 13 L 130 14 L 131 12 L 134 13 L 135 12 L 136 14 L 139 14 L 142 14 L 144 13 L 151 14 L 154 14 L 157 13 L 159 14 L 161 13 L 163 13 L 164 11 L 166 12 L 169 13 L 171 11 L 174 12 L 175 10 L 177 11 L 179 12 L 181 11 L 184 10 L 186 10  " fill = "none" stroke = "black" stroke-width = "3"/> 
<path d = "M 212 20 L 208 21 L 205 21 L 202 22 L 200 22 L 198 22 L 195 22 L 189 22 L 182 23 L 174 23 L 171 23 L 169 23 L 166 23 L 160 25 L 158 24 L 156 24 L 154 24 L 152 25 L 147 26 L 141 26 L 138 26 L 136 27 L 134 26 L 130 26 L 125 26 L 120 26 L 114 26 L 105 25 L 100 24 L 95 24 L 93 24 L 92 26 L 90 27 L 91 30 L 91 32 L 91 34 L 92 36 L 93 38 L 93 40 L 93 42 L 93 45 L 93 47 L 93 49 L 92 51 L 91 53 L 91 55 L 91 57 L 91 61 L 91 63 L 91 65 L 92 69 L 93 72 L 92 76 L 90 79 L 89 78 L 92 80 L 92 83 L 91 86 L 92 89 L 92 92 L 93 94 L 92 96 L 92 98 L 93 100 L 94 104 L 94 106 L 95 110 L 96 113 L 95 115 L 95 117 L 97 122 L 97 129 L 98 132 L 99 134 L 99 136 L 100 138 L 101 139 L 104 140 L 105 138 L 107 137 L 108 138 L 108 137 L 109 136 L 111 137 L 112 139 L 116 137 L 117 135 L 121 134 L 124 135 L 127 134 L 130 134 L 133 133 L 135 132 L 138 131 L 141 132 L 142 130 L 145 131 L 147 131 L 149 130 L 151 129 L 155 128 L 158 127 L 160 126 L 160 128 L 161 128 L 162 126 L 165 126 L 167 126 L 170 125 L 172 124 L 174 124 L 175 123 L 178 123 L 178 125 L 179 123 L 182 122 L 184 122 L 186 122 L 188 121 L 190 120 L 193 121 L 194 119 L 196 119 L 198 118 L 201 117 L 203 117 L 205 117 L 206 115 L 209 114 L 211 115 L 213 115 L 216 115 L 220 113 L 222 113 L 225 114 L 226 113 L 228 113 L 230 113 L 231 112 L 234 113 L 235 112 L 237 113 L 238 111 L 241 112 L 244 111 L 246 111 L 248 110 L 251 108 L 251 110 L 253 109 L 255 108 L 257 109 L 260 109 L 261 106 L 261 104 L 260 100 L 260 97 L 259 94 L 259 91 L 258 89 L 257 84 L 256 82 L 256 80 L 255 74 L 254 72 L 255 69 L 254 65 L 253 63 L 252 60 L 252 58 L 251 55 L 251 53 L 251 50 L 250 47 L 249 44 L 249 42 L 247 37 L 246 33 L 244 30 L 243 27 L 240 25 L 238 22 L 236 21 L 233 20 L 227 21 L 220 20 L 216 21  " fill = "none" stroke = "black" stroke-width = "3"/> 
<path d = "M 208 60 L 212 60 L 215 62 L 216 63 L 218 64 L 216 66 L 217 66 L 218 65 L 220 65 L 222 65 L 227 65 L 231 67 L 232 69 L 235 72 L 236 75 L 235 77 L 236 80 L 233 85 L 230 89 L 228 91 L 224 93 L 221 94 L 218 95 L 214 96 L 212 96 L 208 95 L 206 92 L 204 91 L 203 88 L 202 85 L 203 82 L 203 80 L 203 77 L 205 72 L 206 69 L 207 66 L 208 62  " fill = "none" stroke = "black" stroke-width = "3"/> 
<path d = "M 221 73 L 218 74 L 216 75 L 214 76 L 213 77 L 212 80 L 211 82 L 212 86 L 216 86 L 219 85 L 224 82 L 226 78 L 226 76 L 224 74 L 223 73  " fill = "none" stroke = "black" stroke-width = "3"/> 
<path d = "M 177 48 L 179 49 L 178 50 L 180 49 L 183 51 L 182 53 L 183 58 L 183 60 L 183 62 L 183 65 L 183 67 L 183 70 L 183 73 L 184 76 L 185 80 L 184 83 L 185 85 L 185 87 L 184 88 L 181 90 L 177 86 L 176 84 L 174 80 L 175 77 L 175 73 L 175 69 L 174 66 L 175 64 L 174 62 L 174 59 L 173 55 L 174 53 L 173 51  " fill = "none" stroke = "black" stroke-width = "3"/> 
<path d = "M 193 40 L 195 41 L 197 43 L 198 45 L 197 47 L 197 57 L 198 59 L 197 61 L 197 63 L 197 65 L 197 67 L 196 76 L 197 80 L 198 84 L 197 86 L 197 89 L 193 89 L 190 88 L 190 87 L 188 85 L 189 83 L 187 79 L 187 77 L 187 75 L 188 73 L 188 71 L 188 64 L 188 62 L 188 60 L 188 57 L 189 51 L 189 49 L 190 46 L 190 44 L 189 42 L 191 42  " fill = "none" stroke = "black" stroke-width = "3"/> 
<path d = "M 108 39 L 111 39 L 115 41 L 116 45 L 117 53 L 116 56 L 116 58 L 116 64 L 116 66 L 116 69 L 116 71 L 118 71 L 120 71 L 126 70 L 128 70 L 130 69 L 129 67 L 131 65 L 132 59 L 133 53 L 133 51 L 132 49 L 134 46 L 134 43 L 135 40 L 138 40 L 139 39 L 142 40 L 145 42 L 145 44 L 145 49 L 144 55 L 144 57 L 144 59 L 144 61 L 144 65 L 144 72 L 144 75 L 145 78 L 147 79 L 147 77 L 149 76 L 154 73 L 155 71 L 157 71 L 158 70 L 160 69 L 165 71 L 167 75 L 168 76 L 167 80 L 167 82 L 167 84 L 167 85 L 169 85 L 170 87 L 169 89 L 169 90 L 167 92 L 164 94 L 162 95 L 158 96 L 154 96 L 151 96 L 149 96 L 147 96 L 146 96 L 146 98 L 145 98 L 146 101 L 146 100 L 148 102 L 146 105 L 145 104 L 144 106 L 142 105 L 140 105 L 138 104 L 137 102 L 136 100 L 135 96 L 133 91 L 132 88 L 131 87 L 130 83 L 129 82 L 127 82 L 125 82 L 123 82 L 121 83 L 118 84 L 116 87 L 116 90 L 116 92 L 117 97 L 118 101 L 116 102 L 114 102 L 110 103 L 107 100 L 105 94 L 105 89 L 105 86 L 105 83 L 105 81 L 105 78 L 105 67 L 105 64 L 105 62 L 105 52 L 105 49 L 105 47 L 106 43 L 107 41  " fill = "none" stroke = "black" stroke-width = "3"/> 
</svg>