<?xml version="1.0" standalone="no"?>
 <!DOCTYPE svg PUBLIC "-//W3C//DTD SVG 1.1//EN" "http://www.w3.org/Graphics/SVG/1.1/DTD/svg11.dtd"> 
 <svg viewBox = "0 0 300 300" version = "1.1"><path d = "M 1 130 L 1 260 L 1 262 L 1 274 L 1 276 L 2 279 L 1 281 L 1 283 L 1 284 L 3 283 L 5 285 L 3 286 L 1 287 L 1 290 L 1 292 L 1 294 L 2 294 L 2 296 L 1 297 L 3 297 L 5 297 L 298 149  " fill = "none" stroke = "black" stroke-width = "3"/> 
<path d = "M 23 18 L 27 19 L 30 21 L 31 21 L 32 22 L 34 21 L 36 22 L 37 23 L 39 24 L 40 22 L 45 24 L 47 23 L 49 23 L 51 21 L 53 22 L 53 24 L 54 22 L 56 21 L 57 24 L 60 23 L 63 24 L 65 23 L 68 24 L 70 25 L 73 24 L 75 24 L 77 24 L 89 24 L 94 24 L 97 24 L 99 24 L 101 24 L 103 23 L 105 23 L 108 24 L 110 24 L 111 23 L 113 23 L 114 22 L 116 23 L 119 22 L 120 24 L 123 23 L 126 24 L 128 23 L 131 24 L 137 25 L 142 24 L 144 24 L 145 23 L 148 23 L 149 24 L 152 25 L 154 27 L 155 27 L 158 28 L 160 27 L 164 27 L 166 28 L 168 28 L 171 28 L 173 30 L 175 31 L 177 36 L 178 41 L 178 44 L 179 47 L 180 52 L 180 55 L 181 57 L 183 58 L 182 61 L 183 65 L 182 67 L 183 71 L 183 76 L 184 79 L 185 82 L 186 87 L 187 90 L 186 92 L 187 96 L 188 98 L 188 102 L 188 104 L 189 107 L 188 110 L 189 113 L 190 118 L 192 119 L 191 121 L 191 123 L 191 125 L 190 127 L 188 133 L 185 134 L 183 134 L 179 134 L 177 134 L 169 134 L 167 135 L 161 136 L 155 137 L 152 137 L 149 139 L 144 138 L 139 139 L 137 138 L 134 139 L 132 139 L 129 139 L 126 139 L 124 140 L 119 141 L 115 142 L 111 143 L 105 145 L 102 145 L 99 146 L 96 147 L 93 146 L 91 147 L 89 147 L 86 148 L 83 148 L 81 148 L 79 149 L 74 150 L 72 150 L 69 151 L 66 152 L 63 151 L 58 152 L 56 152 L 54 152 L 50 153 L 46 154 L 44 155 L 36 155 L 34 156 L 31 156 L 29 156 L 27 158 L 24 158 L 21 158 L 18 159 L 15 158 L 15 159 L 11 158 L 9 152 L 8 149 L 8 147 L 9 142 L 8 137 L 8 135 L 8 133 L 7 129 L 7 127 L 7 124 L 7 122 L 7 115 L 6 113 L 5 111 L 5 109 L 6 102 L 6 100 L 5 98 L 5 96 L 5 94 L 5 92 L 6 90 L 7 86 L 7 83 L 7 81 L 8 81 L 7 78 L 7 76 L 8 74 L 8 73 L 7 72 L 8 69 L 5 70 L 6 68 L 7 66 L 6 64 L 7 63 L 7 61 L 7 59 L 8 56 L 8 51 L 9 48 L 10 44 L 9 40 L 8 35 L 7 30 L 8 26 L 8 24 L 9 21 L 10 19 L 12 20 L 15 19 L 18 20  " fill = "none" stroke = "black" stroke-width = "3"/> 
<path d = "M 22 35 L 20 36 L 19 38 L 18 40 L 19 43 L 18 45 L 19 49 L 19 51 L 18 56 L 17 59 L 18 62 L 17 64 L 17 66 L 16 68 L 16 71 L 17 73 L 17 76 L 16 79 L 16 81 L 15 83 L 16 84 L 16 86 L 15 88 L 15 93 L 15 97 L 15 101 L 15 103 L 14 105 L 15 109 L 15 112 L 17 116 L 16 118 L 18 122 L 16 124 L 17 125 L 16 127 L 16 129 L 17 132 L 17 134 L 18 137 L 17 139 L 19 146 L 20 147 L 22 148 L 24 148 L 25 146 L 27 147 L 29 146 L 31 146 L 33 145 L 35 145 L 37 144 L 39 144 L 44 144 L 48 144 L 49 143 L 51 143 L 52 141 L 57 142 L 61 141 L 63 142 L 65 142 L 67 140 L 69 140 L 68 141 L 71 140 L 73 140 L 75 140 L 76 141 L 79 140 L 82 138 L 85 138 L 86 137 L 91 136 L 93 138 L 95 137 L 95 136 L 98 136 L 100 137 L 100 136 L 101 135 L 103 136 L 104 135 L 106 134 L 107 135 L 109 134 L 111 134 L 113 134 L 114 132 L 117 133 L 119 131 L 121 132 L 124 130 L 125 130 L 126 129 L 130 130 L 132 129 L 134 129 L 137 130 L 139 131 L 138 130 L 142 129 L 146 128 L 149 129 L 152 129 L 154 129 L 156 128 L 159 127 L 162 126 L 165 126 L 170 126 L 172 125 L 175 125 L 179 123 L 181 121 L 180 118 L 178 117 L 179 114 L 180 111 L 179 108 L 178 102 L 177 93 L 176 87 L 177 84 L 175 80 L 174 76 L 173 73 L 173 69 L 173 62 L 172 59 L 171 57 L 171 54 L 169 52 L 168 50 L 170 49 L 168 46 L 166 43 L 165 41 L 163 40 L 162 38 L 161 37 L 155 37 L 152 36 L 150 36 L 148 36 L 141 36 L 139 36 L 137 36 L 135 36 L 133 36 L 131 37 L 130 36 L 129 38 L 127 37 L 125 36 L 122 38 L 118 37 L 115 38 L 112 37 L 109 37 L 101 36 L 94 36 L 92 36 L 90 36 L 85 37 L 83 37 L 81 37 L 79 37 L 77 37 L 75 38 L 72 39 L 69 38 L 60 39 L 58 39 L 57 37 L 56 38 L 54 38 L 50 38 L 45 38 L 43 38 L 41 37 L 39 37 L 35 37 L 31 36 L 27 37 L 26 35 L 25 35 L 23 36  " fill = "none" stroke = "black" stroke-width = "3"/> 
<path d = "M 100 60 L 102 61 L 106 62 L 106 64 L 106 69 L 106 71 L 106 73 L 105 78 L 106 81 L 107 84 L 106 86 L 107 88 L 109 89 L 106 92 L 108 94 L 107 96 L 108 98 L 109 100 L 107 101 L 105 104 L 103 105 L 102 104 L 100 104 L 99 103 L 98 101 L 97 94 L 96 88 L 97 84 L 97 80 L 96 69 L 97 64 L 98 61  " fill = "none" stroke = "black" stroke-width = "3"/> 
<path d = "M 116 52 L 118 53 L 120 54 L 121 55 L 121 57 L 122 60 L 121 63 L 122 65 L 121 69 L 120 73 L 120 77 L 119 82 L 120 84 L 119 86 L 120 89 L 119 93 L 121 96 L 120 98 L 123 98 L 124 96 L 125 94 L 125 91 L 126 89 L 125 87 L 128 86 L 127 84 L 128 80 L 130 78 L 132 74 L 133 72 L 135 73 L 136 73 L 137 74 L 138 77 L 140 78 L 143 80 L 145 79 L 147 81 L 148 79 L 153 83 L 155 84 L 157 86 L 158 88 L 157 92 L 158 94 L 157 96 L 156 99 L 155 101 L 152 104 L 148 107 L 146 108 L 143 109 L 141 110 L 140 111 L 138 111 L 136 112 L 133 111 L 129 110 L 127 109 L 126 107 L 124 104 L 123 101 L 121 101 L 117 105 L 114 104 L 112 104 L 111 102 L 110 100 L 109 98 L 108 96 L 109 93 L 108 91 L 110 88 L 110 84 L 110 82 L 110 80 L 111 68 L 112 66 L 113 60 L 113 58 L 114 55  " fill = "none" stroke = "black" stroke-width = "3"/> 
<path d = "M 140 90 L 135 91 L 134 93 L 133 97 L 134 99 L 136 101 L 138 100 L 140 101 L 143 99 L 146 96 L 147 94 L 148 92 L 146 90 L 144 89 L 142 90  " fill = "none" stroke = "black" stroke-width = "3"/> 
<path d = "M 35 48 L 37 49 L 40 50 L 42 51 L 41 53 L 43 56 L 43 58 L 42 59 L 42 62 L 41 68 L 40 75 L 40 77 L 40 79 L 42 82 L 43 81 L 47 82 L 47 81 L 48 80 L 51 80 L 54 77 L 54 75 L 55 72 L 54 69 L 55 68 L 55 66 L 55 64 L 56 62 L 56 60 L 58 56 L 59 53 L 60 51 L 62 51 L 64 50 L 67 49 L 70 51 L 71 54 L 72 57 L 71 61 L 71 63 L 69 64 L 70 66 L 69 68 L 69 70 L 68 76 L 67 80 L 67 83 L 67 85 L 68 89 L 70 89 L 71 87 L 75 86 L 77 84 L 78 83 L 80 83 L 84 81 L 86 82 L 90 86 L 92 88 L 90 91 L 91 93 L 91 95 L 94 97 L 93 99 L 93 100 L 91 103 L 90 104 L 88 106 L 83 107 L 80 108 L 78 109 L 75 109 L 73 109 L 71 109 L 67 110 L 68 112 L 68 114 L 67 118 L 63 119 L 61 119 L 59 116 L 57 111 L 56 108 L 55 107 L 54 105 L 54 102 L 52 101 L 52 99 L 52 95 L 50 94 L 45 95 L 39 96 L 39 99 L 38 102 L 40 105 L 38 108 L 38 110 L 38 112 L 39 113 L 37 114 L 30 114 L 28 111 L 26 107 L 26 105 L 26 102 L 27 98 L 27 96 L 28 92 L 27 88 L 27 84 L 27 82 L 28 80 L 27 76 L 28 75 L 27 74 L 28 72 L 28 64 L 29 62 L 29 60 L 28 57 L 29 55 L 29 53 L 31 52 L 32 50 L 33 50  " fill = "none" stroke = "black" stroke-width = "3"/> 
</svg>